<?xml version="1.0" standalone="no"?><!DOCTYPE svg PUBLIC "-//W3C//DTD SVG 1.1//EN" "http://www.w3.org/Graphics/SVG/1.1/DTD/svg11.dtd"><svg t="1682668197560" class="icon" viewBox="0 0 1024 1024" version="1.1" xmlns="http://www.w3.org/2000/svg" p-id="3666" xmlns:xlink="http://www.w3.org/1999/xlink" width="200" height="200"><path d="M788.48 757.76a30.72 30.72 0 0 0 30.72-30.72V409.6a20.48 20.48 0 0 0-20.48-20.48H307.2a20.48 20.48 0 0 0-20.48 20.48v317.44a30.72 30.72 0 0 1-30.72 30.72h532.48z" fill="#CBE5FF" p-id="3667"></path><path d="M737.28 389.12v-40.96a20.48 20.48 0 0 0-20.48-20.48H389.12v-40.96a20.48 20.48 0 0 0-20.48-20.48H225.28a20.48 20.48 0 0 0-20.48 20.48v440.32a30.72 30.72 0 0 0 30.72 30.72h20.48a30.72 30.72 0 0 0 30.72-30.72V409.6a20.48 20.48 0 0 1 20.48-20.48h430.08z" fill="#A7C5F2" p-id="3668"></path><path d="M655.36 542.72h-71.68v-71.68h-61.44v71.68h-71.68v61.44h71.68v71.68h61.44v-71.68h71.68z" fill="#FE6363" p-id="3669"></path></svg>